PathFileType	4	(X/Y/Z)	D:\Share\Shared_Data\Ergonomics\Sit To Stand Pertubation\S2\Unperturbed.trc
DataRate	CameraRate	NumFrames	NumMarkers	Units	OrigDataRate	OrigDataStartFrame	OrigNumFrames	
100	100	16	18	m	100	3861	291
Frame#	Time	R_Toe			R_ASIS			R_Pelvis			V_Sacral			L_Pelvis			L_ASIS			Clavical			R_Acromium			L_Acromium			Sternum			Torso			R_Thigh_Med			R_Thigh_Lat			R_Thigh			R_Shank_Med			R_Shank_Lat			R_Shank			R_Heel			
		X1	Y1	Z1	X2	Y2	Z2	X3	Y3	Z3	X4	Y4	Z4	X5	Y5	Z5	X6	Y6	Z6	X7	Y7	Z7	X8	Y8	Z8	X9	Y9	Z9	X10	Y10	Z10	X11	Y11	Z11	X12	Y12	Z12	X13	Y13	Z13	X14	Y14	Z14	X15	Y15	Z15	X16	Y16	Z16	X17	Y17	Z17	X18	Y18	Z18	

3861	38.6	0.44128989	0.066448357	0.1469705	-0.044400349	0.64819556	0.13865652	-0.12284579	0.63629254	0.17721979	-0.24625848	0.56578064	0.019411982	-0.16011064	0.62815253	-0.16082018	-0.068242981	0.65419397	-0.13210355	-0.064162743	1.029951	0.0074512463	-0.16127788	1.0445387	0.21058337	-0.1667887	1.0564143	-0.17771651	-0.01298593	0.87317169	0.0037116032	-0.052601036	0.99100427	-0.10928508	0.36985962	0.50606149	0.1251032	0.33848404	0.5125755	0.22837056	0.17751279	0.62269873	0.17258194	0.3036882	0.10889633	0.11198003	0.28488885	0.10151225	0.20403131	0.33228879	0.36016531	0.24157861	0.20393437	0.061986851	0.15258127
3862	38.61	0.44128925	0.066446312	0.14697362	-0.044393036	0.64817761	0.13864392	-0.12283846	0.63630273	0.17719949	-0.24626202	0.56579669	0.019407677	-0.1600916	0.62816754	-0.16082031	-0.068213257	0.65418042	-0.13210869	-0.063767002	1.029871	0.0075182767	-0.16093996	1.0444993	0.21062466	-0.16627524	1.0564865	-0.177668	-0.012736814	0.87305237	0.0037695651	-0.052196369	0.99095374	-0.10920795	0.36982266	0.50606219	0.12511491	0.33845584	0.51257751	0.2283726	0.17749612	0.6227019	0.17258371	0.30368787	0.10889615	0.11198185	0.28489026	0.10151232	0.20403391	0.33226044	0.36016684	0.24158553	0.20393576	0.061987171	0.15258124
3863	38.62	0.44128845	0.066444283	0.14697653	-0.044383923	0.64815942	0.13863086	-0.12282869	0.63631384	0.17717757	-0.24626694	0.56581342	0.019403006	-0.16007648	0.62818921	-0.16082091	-0.068188232	0.65417065	-0.13211493	-0.063351303	1.0297913	0.0075880976	-0.16057179	1.0444653	0.21067029	-0.1657466	1.0565583	-0.17761646	-0.012467928	0.8729317	0.0038279529	-0.051773968	0.99089941	-0.10913338	0.36978302	0.50606186	0.12512148	0.3384295	0.51257953	0.22837317	0.17748	0.6227052	0.17258284	0.30368607	0.10889483	0.11198317	0.28489014	0.10151154	0.20403561	0.33223175	0.36016812	0.24158972	0.20393726	0.061986843	0.15258228
3864	38.63	0.44128745	0.06644281	0.14697925	-0.044372948	0.64814142	0.13861731	-0.1228159	0.63632581	0.17715552	-0.24627304	0.56583075	0.019398474	-0.16006602	0.62821619	-0.16082181	-0.068168152	0.65416559	-0.13212236	-0.06291341	1.0297115	0.0076615353	-0.16017223	1.0444359	0.21071667	-0.16520158	1.0566299	-0.17756308	-0.012179454	0.87280798	0.003886899	-0.05133287	0.99084088	-0.10906239	0.36974265	0.50606113	0.12512353	0.33840564	0.51258173	0.2283719	0.17746423	0.6227088	0.17257997	0.30368259	0.10889275	0.11198386	0.28488858	0.10151044	0.2040368	0.33220383	0.36016971	0.24159138	0.20393863	0.06198629	0.15258421
3865	38.64	0.44128629	0.06644223	0.1469817	-0.044360359	0.64812366	0.13860353	-0.12279944	0.6363382	0.17713635	-0.24628017	0.56584845	0.019394896	-0.16006046	0.62824811	-0.16082201	-0.06815255	0.65416632	-0.13213077	-0.062450108	1.0296327	0.0077389674	-0.15974022	1.0444104	0.21076178	-0.16463869	1.0567007	-0.17750856	-0.011871608	0.87268011	0.0039460864	-0.050871548	0.99077771	-0.10899566	0.36970309	0.50606085	0.12512138	0.33838394	0.51258466	0.22836789	0.17744838	0.62271283	0.17257558	0.30367764	0.10889034	0.11198396	0.2848858	0.10150955	0.20403784	0.33217761	0.36017212	0.24159047	0.20393954	0.061986019	0.15258672
3866	38.65	0.44128494	0.066442574	0.14698378	-0.044346703	0.64810583	0.13859019	-0.12277951	0.63635059	0.17712361	-0.24628822	0.56586664	0.019393133	-0.16005948	0.62828522	-0.16081956	-0.068140564	0.65417426	-0.13213931	-0.061957886	1.0295541	0.0078194404	-0.15927391	1.0443889	0.21080487	-0.16405608	1.0567703	-0.1774532	-0.011544449	0.87254761	0.0040041561	-0.050388027	0.99070947	-0.1089339	0.36966516	0.50606143	0.12511449	0.33836389	0.51258881	0.22836002	0.17743208	0.62271759	0.1725696	0.30367154	0.1088879	0.11198357	0.28488226	0.10150925	0.20403908	0.33215347	0.36017606	0.24158676	0.2039397	0.061986404	0.15258926
3867	38.66	0.44128348	0.06644371	0.14698528	-0.044333084	0.64808783	0.13857835	-0.12275804	0.63636279	0.17712007	-0.24629729	0.56588562	0.019393881	-0.16006252	0.62832892	-0.16081239	-0.068131439	0.65418994	-0.13214642	-0.061433434	1.029475	0.0079003582	-0.15877002	1.0443716	0.21084581	-0.16345142	1.056838	-0.17739807	-0.011197654	0.87240906	0.0040588565	-0.049879856	0.99063489	-0.10887755	0.36962885	0.50606299	0.1251014	0.33834445	0.51259442	0.22834689	0.17741508	0.62272284	0.17256142	0.30366464	0.10888561	0.11198286	0.28487872	0.10150979	0.20404083	0.33213132	0.36018173	0.24157996	0.20393916	0.06198748	0.15259145
3868	38.67	0.44128171	0.066445366	0.14698615	-0.044321171	0.64807031	0.13856993	-0.12273942	0.63637482	0.17712645	-0.24630765	0.56590546	0.019397627	-0.16006866	0.62838043	-0.16079874	-0.068124802	0.65421271	-0.13214984	-0.060873287	1.0293936	0.007977931	-0.15822458	1.0443599	0.21088495	-0.16282161	1.0569032	-0.17734601	-0.01083011	0.87226221	0.0041080465	-0.049344028	0.99055347	-0.10882608	0.36959375	0.50606494	0.12508048	0.33832495	0.51260175	0.22832739	0.17739711	0.62272815	0.17255026	0.30365744	0.10888336	0.11198187	0.28487589	0.10151129	0.20404329	0.33211053	0.36018924	0.24156961	0.20393829	0.061988983	0.15259314
3869	38.68	0.44127969	0.066447121	0.14698642	-0.044312782	0.64805402	0.13856792	-0.1227307	0.63638684	0.17714091	-0.24631973	0.56592633	0.019404633	-0.16007677	0.6284397	-0.16077737	-0.068120575	0.65424115	-0.13214705	-0.060273575	1.029308	0.0080481091	-0.15763342	1.0443553	0.2109222	-0.16216254	1.0569645	-0.17730086	-0.010439649	0.87210443	0.0041508379	-0.048776817	0.99046442	-0.10877824	0.36955914	0.50606656	0.12505019	0.33830496	0.51261066	0.2283007	0.17737796	0.62273309	0.17253563	0.30365051	0.10888087	0.11198046	0.28487454	0.10151369	0.20404639	0.33208987	0.36019833	0.2415551	0.20393724	0.061990479	0.15259421
3870	38.69	0.44127744	0.066448769	0.1469863	-0.044309513	0.64803949	0.13857541	-0.12274163	0.63639862	0.17715979	-0.24633423	0.56594812	0.019414841	-0.16008571	0.6285061	-0.16074762	-0.06811882	0.65427332	-0.13213551	-0.059630081	1.0292158	0.0081075506	-0.15699268	1.0443605	0.21095631	-0.16146902	1.0570203	-0.17726546	-0.010023263	0.87193341	0.0041881099	-0.048173683	0.99036652	-0.10873322	0.36952408	0.50606711	0.12500924	0.33828439	0.51262109	0.22826669	0.17735724	0.62273779	0.17251784	0.30364453	0.10887804	0.11197841	0.28487497	0.10151671	0.2040498	0.33206802	0.36020865	0.24153542	0.203936	0.061991589	0.15259465
3871	38.7	0.44127518	0.066450394	0.14698599	-0.044312321	0.64802667	0.13859464	-0.12278433	0.63640955	0.17717918	-0.24635205	0.56597058	0.019427935	-0.16009491	0.62857855	-0.16070909	-0.068119652	0.65430768	-0.13211316	-0.05893816	1.0291162	0.008154274	-0.15629865	1.0443773	0.2109848	-0.1607347	1.057069	-0.17724121	-0.009577836	0.8717475	0.0042221885	-0.047529701	0.99025732	-0.10869144	0.36948764	0.50606592	0.12495689	0.3382634	0.51263251	0.22822571	0.17733449	0.62274261	0.17249802	0.30364035	0.10887492	0.11197552	0.2848775	0.10152013	0.20405339	0.33204401	0.36021988	0.24150932	0.20393431	0.06199194	0.1525946
3872	38.71	0.44127301	0.066452179	0.14698596	-0.044321293	0.64801508	0.13862683	-0.12287251	0.6364184	0.17719646	-0.24637424	0.56599329	0.019443773	-0.16010484	0.62865619	-0.16066167	-0.06812352	0.65434247	-0.13207872	-0.058192497	1.0290081	0.0081879301	-0.15554778	1.0444081	0.21100444	-0.15995248	1.0571084	-0.17722823	-0.0091007042	0.87154584	0.0042560458	-0.046839886	0.99013324	-0.10865466	0.36944873	0.50606293	0.1248933	0.33824203	0.51264447	0.22817821	0.17730916	0.62274811	0.17247804	0.30363858	0.10887167	0.11197173	0.28488278	0.10152415	0.20405748	0.3320173	0.36023151	0.24147517	0.20393181	0.061991142	0.15259439
3873	38.72	0.44127109	0.066454247	0.14698654	-0.044335873	0.64800421	0.13867278	-0.12301941	0.63642352	0.17721062	-0.24640189	0.56601581	0.019462822	-0.16011673	0.62873828	-0.16060526	-0.068131477	0.65437616	-0.13203163	-0.057387314	1.0288904	0.0082093287	-0.15473615	1.0444542	0.21101228	-0.15911461	1.0571372	-0.17722519	-0.00858957	0.87132758	0.0042924776	-0.04609901	0.98999042	-0.10862552	0.36940579	0.50605838	0.12481936	0.33822012	0.51265662	0.22812439	0.17728079	0.62275488	0.17245988	0.30363953	0.10886855	0.11196727	0.28489191	0.10152924	0.20406345	0.33198828	0.36024313	0.24143105	0.20392798	0.061988804	0.15259424
3874	38.73	0.4412695	0.066457001	0.14698784	-0.044355247	0.64799353	0.13873311	-0.12323406	0.6364231	0.17722278	-0.24643617	0.56603729	0.019486357	-0.16013251	0.62882367	-0.16053979	-0.068145149	0.65440692	-0.131972	-0.056516682	1.0287617	0.0082191696	-0.15385957	1.0445172	0.21100613	-0.15821269	1.0571537	-0.17723035	-0.0080422297	0.87109058	0.0043334479	-0.045301353	0.98982495	-0.10860758	0.36935696	0.50605237	0.12473618	0.33819717	0.51266846	0.22806421	0.17724901	0.6227627	0.1724453	0.30364325	0.1088658	0.11196283	0.28490598	0.101536	0.20407333	0.33195822	0.36025397	0.2413746	0.20392224	0.061984413	0.15259456
3875	38.74	0.4412681	0.066461266	0.1469897	-0.044378517	0.64798297	0.1388078	-0.12351483	0.63641589	0.17723701	-0.2464783	0.56605731	0.01951652	-0.16015443	0.62891113	-0.16046533	-0.068166069	0.65443396	-0.13190005	-0.055574497	1.0286193	0.0082170763	-0.15291302	1.0445974	0.21098499	-0.15723807	1.0571569	-0.17724417	-0.0074566264	0.87083209	0.004379468	-0.044440678	0.98963293	-0.10860471	0.36929922	0.50604456	0.12464479	0.33817249	0.51267914	0.22799734	0.17721336	0.62277106	0.17243518	0.30364923	0.10886362	0.11195943	0.28492563	0.10154469	0.20408942	0.33192905	0.36026297	0.24130374	0.20391411	0.061977131	0.15259584
3876	38.75	0.44126669	0.066468338	0.14699191	-0.044404903	0.64797314	0.13889626	-0.12384064	0.63640277	0.1772616	-0.24652927	0.56607501	0.019556356	-0.16018483	0.62899933	-0.16038211	-0.068195076	0.65445764	-0.13181573	-0.054554382	1.02846	0.0082015686	-0.15189111	1.0446953	0.21094872	-0.15618248	1.0571451	-0.17727083	-0.0068309507	0.8705484	0.0044287643	-0.043510353	0.98941089	-0.1086197	0.36922964	0.50603421	0.12454615	0.33814542	0.51268842	0.22792316	0.17717331	0.62277924	0.17242953	0.30365656	0.10886216	0.11195805	0.28495044	0.1015548	0.20411311	0.33190262	0.36026901	0.24121733	0.20390332	0.061965878	0.15259869
